<?xml version="1.0" encoding="utf-8"?>
<!-- Generator: Adobe Illustrator 24.1.1, SVG Export Plug-In . SVG Version: 6.00 Build 0)  -->
<svg version="1.1" id="Слой_1" xmlns="http://www.w3.org/2000/svg" xmlns:xlink="http://www.w3.org/1999/xlink" x="0px" y="0px"
	 width="196.3px" height="78.7px" viewBox="0 0 196.3 78.7" style="enable-background:new 0 0 196.3 78.7;" xml:space="preserve">
<style type="text/css">
	.st0{fill:#D3541D;}
	.st1{fill:#428C34;}
	.st2{fill:#95C11F;}
	.st3{fill:#347631;}
</style>
<g>
	<path class="st0" d="M19.1,17.3l5.6,0.3l1.9,5.3l-1.3,1.8l-1.9-5.3L17.8,19L19.1,17.3z M21.6,13.9l5.6,0.3l1.9,5.3l-1.3,1.8L26,16
		l-5.6-0.3L21.6,13.9z"/>
	<path class="st0" d="M27.4,8.2l5.2,2.1l0.2,5.6L31,17.2l-0.1-5.7l-5.3-2L27.4,8.2z M30.9,5.9l5.2,2.1l0.2,5.6l-1.8,1.3l-0.1-5.7
		l-5.3-2.1L30.9,5.9z"/>
	<path class="st0" d="M38.2,2.2l4.3,3.6l-1.6,5.4l-2.1,0.6l1.7-5.4l-4.4-3.6L38.2,2.2z M42.2,1l4.3,3.6l-1.6,5.4l-2.1,0.6l1.7-5.4
		l-4.3-3.6L42.2,1z"/>
	<path class="st0" d="M50.3-0.1l2.9,4.8l-3.3,4.6l-2.2-0.1l3.3-4.6l-3-4.8L50.3-0.1z M54.4,0.1l2.9,4.8l-3.3,4.6l-2.2-0.1l3.3-4.6
		l-3-4.8L54.4,0.1z"/>
	<path class="st0" d="M62.4,1.5L63.7,7l-4.5,3.4l-2.1-0.7l4.6-3.3l-1.4-5.5L62.4,1.5z M66.4,3l1.3,5.5l-4.5,3.4L61.1,11l4.6-3.3
		l-1.3-5.5L66.4,3z"/>
	<path class="st0" d="M73.5,6.8L73,12.4l-5.3,1.8l-1.7-1.3l5.4-1.7l0.4-5.6L73.5,6.8z M76.7,9.4L76.3,15l-5.3,1.8l-1.7-1.3l5.4-1.7
		L75,8.1L76.7,9.4z"/>
	<path class="st0" d="M82.3,15.4l-2.2,5.2l-5.6,0l-1.2-1.8l5.7,0l2.2-5.2L82.3,15.4z M84.6,18.9L82.4,24l-5.6,0l-1.2-1.8l5.7,0
		l2.2-5.2L84.6,18.9z"/>
	<path class="st0" d="M88.1,26.3l-3.7,4.2L79,28.7l-0.6-2.1l5.4,1.8l3.7-4.3L88.1,26.3z M89.2,30.3l-3.7,4.2l-5.3-1.8l-0.6-2.1
		l5.4,1.8l3.7-4.3L89.2,30.3z"/>
	<path class="st0" d="M89.8,42.6L85,45.4L80.5,42l0.1-2.2l4.5,3.4l4.9-2.9L89.8,42.6z M90.1,38.4l-4.9,2.8l-4.5-3.4l0.1-2.2l4.5,3.4
		l4.9-2.9L90.1,38.4z"/>
</g>
<path class="st0" d="M62.2,43c-2.3,8.8-11.2,14.1-20,12.2c-0.5-9.4-4.7-18.2-11.4-24.6c3.6-6.8,11.6-10.5,19.3-8.4
	C59.2,24.7,64.6,34,62.2,43z"/>
<path class="st1" d="M39,59.2c0.1,3.1-0.3,6.1-1,9.2c-3.8-4.5-8.7-8-14.6-9.9c-0.4-0.1-0.7-0.2-1.1-0.3c-14.8-4.9-24-19.7-21.9-35
	c3.8-0.2,7.6,0.2,11.5,1.2C27.9,28.7,38.7,43.2,39,59.2z"/>
<g>
	<path class="st1" d="M93.7,57.4c-0.5,0.9-0.9,1.8-1.5,2.6c-0.7,1.2-1.5,2.3-2.4,3.4c-0.8,1.1-1.8,2.2-2.7,3.2c-1,1.1-2.1,2-3.2,2.9
		c-1.1,0.9-2.2,1.8-3.4,2.6c-1.3,0.9-2.6,1.7-4,2.4c-1.4,0.7-2.8,1.4-4.3,1.9c-1.7,0.6-3.4,1.1-5.2,1.5c-2,0.4-4,0.7-6,0.8
		c-2.5,0.2-5,0.1-7.6-0.2c-1.7-0.2-3.4-0.6-5.2-1c-2-0.5-3.9-1.2-5.7-2c0-0.2,0.1-0.4,0.2-0.6c4.6-17.3,22.4-27.6,39.7-22.9
		C86.7,53,90.4,54.9,93.7,57.4z"/>
	<g>
		<path class="st2" d="M51.9,72.2l-4.8,1.7l6.3,4.6c2.5,0.3,5.1,0.4,7.6,0.2L51.9,72.2z"/>
	</g>
	<g>
		<path class="st2" d="M61.6,68.7l-4.8,1.7l10.2,7.4c1.8-0.4,3.5-0.9,5.2-1.5L61.6,68.7z"/>
	</g>
	<g>
		<path class="st2" d="M71.2,65.4L66.4,67l10.1,7.4c1.4-0.7,2.7-1.5,4-2.4L71.2,65.4z"/>
	</g>
	<g>
		<path class="st2" d="M80.7,62L76,63.7l8,5.9c1.1-0.9,2.2-1.9,3.2-2.9L80.7,62z"/>
	</g>
	<g>
		<path class="st2" d="M89.8,63.4l-4.3-3.2l4.8-1.7l1.9,1.4c0,0-0.3,0.6-1.1,1.7C90.5,62.6,89.8,63.4,89.8,63.4z"/>
	</g>
</g>
<path class="st3" d="M93.7,57.4l-51,18.1c0-0.2,0.1-0.4,0.2-0.6c4.6-17.3,22.4-27.6,39.7-22.9C86.7,53,90.4,54.9,93.7,57.4z"/>
<path class="st3" d="M38,68.6L38,68.6c-3.8-4.4-8.7-7.9-14.6-9.8c-0.4-0.1-0.7-0.2-1.1-0.3c-14.8-4.9-24-19.7-21.9-35h0.1
	c1,1.2,2.3,2.7,3.4,3.9c1.1,1.2,2.3,2.6,3.7,3.9c1.2,1.2,2.4,2.4,3.7,3.6c1.2,1.1,2.4,2.1,3.8,3.2c1.2,1,2.5,1.9,3.8,2.8
	c0.5,0.3,1,0.7,1.5,1c0.8,0.5,1.6,1,2.3,1.5c1.3,0.9,2.6,1.9,3.8,3c1.4,1.2,2.6,2.5,3.8,3.8c1.3,1.5,2.5,3.2,3.5,4.9
	c1.4,2.5,2.6,5.1,3.3,7.9C37.5,64.7,37.8,66.6,38,68.6z"/>
<g>
	<path class="st2" d="M31.8,38l-1.6,11.8c1.3,1.5,2.5,3.2,3.5,4.9l1.6-11C34.3,41.7,33.1,39.7,31.8,38z"/>
</g>
<g>
	<path class="st2" d="M38.2,52.3L37,62.6c0.5,1.8,0.8,3.7,1,5.7l0,0c0.7-3.1,1.1-6.2,1-9.2C39,56.8,38.7,54.6,38.2,52.3z"/>
</g>
<g>
	<path class="st2" d="M24.3,30.4L22.6,43l3.8,3l1.7-12.2C26.9,32.5,25.6,31.4,24.3,30.4z"/>
</g>
<g>
	<path class="st2" d="M16.5,26l-1.6,11.8c1.2,1,2.5,1.9,3.8,2.8l1.8-12.5C19.2,27.2,17.9,26.5,16.5,26z"/>
</g>
<g>
	<path class="st2" d="M11.8,24.3c-1.1-0.3-2.2-0.5-3.4-0.7l-1,7.4c1.2,1.2,2.4,2.4,3.7,3.6l1.4-10C12.3,24.5,12,24.4,11.8,24.3z"/>
</g>
<g>
	<path class="st2" d="M0.3,23.2c1,1.2,2.3,2.7,3.4,3.9l0.5-3.9C3,23.1,1.6,23.1,0.3,23.2z"/>
</g>
<g>
	<path class="st3" d="M113.4,43.5c-0.7,2.6-3.1,4.2-5.9,4.2c-3.4,0-6.1-2.7-6.1-6c0-3.3,2.7-6,6.1-6c2.7,0,5.1,1.6,5.9,4.2l-1.9,0.6
		c-0.5-1.8-2.1-3-3.9-3c-2.3,0-4.1,1.8-4.1,4.2c0,2.3,1.7,4.2,4.1,4.2c1.9,0,3.4-1.2,3.9-3L113.4,43.5z"/>
	<path class="st3" d="M125.1,35.6l-4.1,5.7l4.6,6.4h-2.4l-3.4-4.7l-3.4,4.7h-2.4l4.6-6.4l-4.1-5.7h2.4l2.9,4.1l2.9-4
		C122.8,35.6,125.1,35.6,125.1,35.6z"/>
	<path class="st3" d="M137.4,35.6v12.1h-2V37.5h-5.9v10.2h-2V35.6H137.4z"/>
	<path class="st3" d="M107.2,51.2l-3.4,5.1l3.4,5.1h-2.4l-3.4-5.1l3.4-5.1H107.2z M111.8,51.2l-3.4,5.1l3.4,5.1h-2.4l-3.4-5.1
		l3.4-5.1H111.8z"/>
	<path class="st3" d="M123.4,49.7c-1.6,1.7-3.2,3.5-4.8,5.2l5.8,6.9H122l-5.2-6.2v6.2h-2V49.7h2v4.6c1.4-1.5,2.9-3.1,4.3-4.6H123.4z
		"/>
	<path class="st3" d="M132.7,49.7l4.8,12.1h-2l-0.8-2.1h-6l-0.8,2.1h-2l4.8-12.1H132.7z M129.4,57.9h4.5l-2.3-5.8L129.4,57.9z"/>
	<path class="st3" d="M146.4,55.3c1.2,0.5,2.1,1.5,2.1,2.9c0,2.1-1.5,3.5-3.5,3.5h-5.8V49.7h4.6c1.9,0,3.5,1.4,3.5,3.5
		C147.3,54,147,54.7,146.4,55.3z M141.2,51.5v3.3h2.6c0.8-0.1,1.7-0.7,1.7-1.7c0-0.9-0.8-1.7-1.8-1.7
		C143.7,51.5,141.2,51.5,141.2,51.5z M144.7,59.9c0.9,0,1.8-0.6,1.8-1.7c0-1-0.8-1.7-1.8-1.7h-3.5v3.4
		C141.2,59.9,144.7,59.9,144.7,59.9z"/>
	<path class="st3" d="M159.3,49.7c-1.6,1.7-3.2,3.5-4.8,5.2l5.8,6.9h-2.4l-5.2-6.2v6.2h-2V49.7h2v4.6c1.4-1.5,2.9-3.1,4.3-4.6H159.3
		z"/>
	<path class="st3" d="M168.5,49.7l4.8,12.1h-2l-0.8-2.1h-6l-0.8,2.1h-2l4.8-12.1H168.5z M165.3,57.9h4.5l-2.3-5.8L165.3,57.9z"/>
	<path class="st3" d="M175.6,58.2c1.2,1.2,2.6,1.7,3.7,1.7c1.6,0,2.9-0.9,2.8-1.9c0-1.2-1.8-1.5-3.4-1.5H177v-1.8h1.7
		c1.3,0,2.8-0.4,2.8-1.5c0-1.1-1.1-1.8-2.5-1.7c-1,0-2.1,0.3-3.1,1.1l-1.1-1.4c1.5-1,3-1.5,4.4-1.5c2.5,0,4.4,1.5,4.4,3.6
		c0,1-0.6,1.7-1.6,2.2c1.3,0.5,2.2,1.3,2.2,2.6c0,2-2,3.7-4.7,3.7c-1.7,0-3.5-0.7-5.1-2.2L175.6,58.2z"/>
	<path class="st3" d="M188.3,51.2l3.4,5.1l-3.4,5.1H186l3.4-5.1l-3.4-5.1H188.3z M192.9,51.2l3.4,5.1l-3.4,5.1h-2.4l3.4-5.1
		l-3.4-5.1H192.9z"/>
</g>
</svg>
